<svg xmlns="http://www.w3.org/2000/svg" viewBox="152 50 192.531 34.385"><defs><style>.a{fill:#ff9800;}</style></defs><g transform="translate(-311.469 -323)"><path class="a" d="M28.373,24.275a2.9,2.9,0,1,0,0,3.648A1.932,1.932,0,0,1,27.089,26.1a1.894,1.894,0,0,1,1.284-1.824M14.817,27.923A1.932,1.932,0,0,1,13.533,26.1a1.954,1.954,0,0,1,1.284-1.824A2.9,2.9,0,1,0,12.565,29a2.8,2.8,0,0,0,2.252-1.081M38.686,3.873H12.7l2.207,9.976,11.845-.9-.5,2.184-3.918.293v4.729l10.539-.811,3.558-9.458H21.753L21.28,7.746H37.245ZM20.2,15.583l-6.958.54L10.494,3.873,9.638,0h-7.7a1.937,1.937,0,0,0,0,3.873H3.873L7.746,21.28,20.2,20.311Zm4.391,15.9a1.5,1.5,0,0,1-.788,1.982,11.321,11.321,0,0,1-4.481.923,11.133,11.133,0,0,1-4.459-.923,1.5,1.5,0,1,1,1.216-2.747,8.229,8.229,0,0,0,6.53,0,1.475,1.475,0,0,1,1.982.766" transform="translate(463.469 373)"/><path class="a" d="M249.635,43.015h3.716L252.27,48.6H240.2l.608-3.2h1.554l1.621-8.264h-1.576l.653-3.468h7.656l-.653,3.468h-1.6L246.91,45.11h2.3Zm6.891-6.215h4.188l.608-3.153h-4.188Zm4.053,1.013h-5.652l-.585,3.062h1.306l-.676,3.58a6.639,6.639,0,0,0-.18,1.509c0,2.567,1.869,2.68,3.783,2.68.36,0,.63,0,.856-.023l.36-.045.585-3.085h-.135c-.068,0-.135.023-.2.023-.653,0-.743-.315-.743-.676a2.28,2.28,0,0,1,.09-.7Zm8.737,0-.631,3.062h.608l-1.284,2.815c-.158.383-.338.788-.428,1.1l-.18.518h-.068a4.344,4.344,0,0,0,.022-.54,6.028,6.028,0,0,0-.045-1.081l-.2-2.815h.608l.63-3.062h-5.877l-.631,3.062h1.171l1.261,7.7h5.179l4.256-7.7h1.171l.608-3.062h-6.17Zm43.573,7.7c-.585,0-.721-.338-.721-.676,0-.766.676-2.837.676-4.211a2.92,2.92,0,0,0-3.13-3.062,4.3,4.3,0,0,0-2.612.878,4.86,4.86,0,0,0-.923.878h-.045l.113-.248a4.628,4.628,0,0,0,.158-.653l.968-4.751H301.7l-.608,3.062H302.4L300.1,48.6h4.346l.878-4.459c.27-1.419,1.036-2.68,2.252-2.68.653,0,.743.383.743.608,0,.653-.631,2.477-.631,3.941,0,2.522,1.959,2.657,3.558,2.657.518,0,.878,0,1.1-.023.135-.023.248-.023.315-.045l.585-3.085h-.113a.912.912,0,0,0-.248,0M294.829,33.4c-3.378,0-6.508,1.374-6.508,4.932,0,4.5,6.17,4.143,6.17,5.494,0,.54-.45,1.148-1.689,1.148-.923,0-2-.18-1.847-1.081l.18-.946h-3.986l-.315,1.756c-.585,3.13,3.153,4.166,5.382,4.166,3.58,0,6.755-1.644,6.755-5.112,0-4.594-6.193-3.873-6.193-5.585,0-.473.383-.878,1.509-.878.721,0,1.351.113,1.261.676l-.18.923h3.963l.428-2.139c.585-2.86-3.085-3.355-4.931-3.355m-13.083,8.377a.7.7,0,0,0-.023.2h-2.072c.158-.721.608-1.509,1.351-1.509.653,0,.766.518.766.923a2.454,2.454,0,0,1-.023.383m-.5-4.233a6.172,6.172,0,0,0-6.305,6.193c0,2.815,1.756,5.089,5.494,5.089a8.77,8.77,0,0,0,3.423-.7,6.108,6.108,0,0,0,1.261-.7l-1.081-3.175a7.051,7.051,0,0,1-1.013.5,5.858,5.858,0,0,1-2.139.518c-.946,0-1.666-.383-1.644-1.441h6.305a3.848,3.848,0,0,0,.2-.608,5.508,5.508,0,0,0,.2-1.486c.022-2.342-1.689-4.188-4.706-4.188m39.092,7.724a1.385,1.385,0,0,1-1.486-1.531,2.493,2.493,0,0,1,2.319-2.612,1.423,1.423,0,0,1,1.464,1.6,2.357,2.357,0,0,1-2.3,2.545m1.1-7.724c-3.6,0-6.981,2.567-6.981,6.4,0,2.995,2.409,4.886,5.562,4.886,3.58,0,7-2.567,7-6.373.023-3.017-2.387-4.909-5.585-4.909m57.061,0h-.315a4.36,4.36,0,0,0-3.828,2.59h-.045a5.393,5.393,0,0,0,.248-1.351c0-.721-.518-1.013-1.374-1.013h-3.851l-.608,3.062h.856c.36,0,.428.225.383.45l-1.4,7.251H372.9l.721-3.783c.563-2.927,2.635-2.995,3.333-2.995a4.767,4.767,0,0,1,.676.023l.18.045.833-4.256a.286.286,0,0,0-.135-.023m-15.4,4.233a.7.7,0,0,0-.023.2h-2.072c.158-.721.608-1.509,1.351-1.509.653,0,.766.518.766.923a2.462,2.462,0,0,1-.023.383m-.5-4.233a6.172,6.172,0,0,0-6.305,6.193c0,2.815,1.756,5.089,5.494,5.089a8.771,8.771,0,0,0,3.423-.7,6.109,6.109,0,0,0,1.261-.7L365.4,44.254a8.135,8.135,0,0,1-.991.5,5.859,5.859,0,0,1-2.139.518c-.946,0-1.666-.383-1.644-1.441h6.305q.1-.27.2-.608a6.578,6.578,0,0,0,.2-1.486c-.023-2.342-1.711-4.188-4.729-4.188m-12.092,6.981a2.024,2.024,0,0,1-1.509.766c-.991,0-1.351-.676-1.351-1.531a2.43,2.43,0,0,1,2.139-2.59,1.288,1.288,0,0,1,.811.248,1.573,1.573,0,0,0-1.238,1.554,1.6,1.6,0,0,0,1.148,1.554m.766-6.981A3.848,3.848,0,0,0,348.2,39.12h-.045l.068-.158a1.052,1.052,0,0,0,.068-.383c0-.405-.293-.766-1.261-.766h-3.761l-.585,3.062h.856c.27,0,.405.135.36.45l-2.184,11.394h4.346l.721-4.008a5.688,5.688,0,0,0,.113-.653,1.1,1.1,0,0,0,.023-.248h.045a3.95,3.95,0,0,0,2.635,1.013,6.23,6.23,0,0,0,5.922-6.485c-.022-2.9-1.621-4.8-4.233-4.8m-15.02,6.981a1.98,1.98,0,0,1-1.486.766c-.968,0-1.351-.676-1.351-1.531a2.43,2.43,0,0,1,2.139-2.59,1.335,1.335,0,0,1,.811.248,1.614,1.614,0,0,0-.113,3.108m.766-6.981a3.879,3.879,0,0,0-3.085,1.576H333.9l.068-.158a1.052,1.052,0,0,0,.068-.383c0-.405-.293-.766-1.261-.766h-3.761l-.585,3.062h.856c.27,0,.405.135.36.45l-2.184,11.394H331.8l.721-4.008a5.7,5.7,0,0,0,.113-.653,1.106,1.106,0,0,0,.022-.248h.045a3.95,3.95,0,0,0,2.635,1.013,6.23,6.23,0,0,0,5.922-6.485c-.022-2.9-1.621-4.8-4.233-4.8" transform="translate(277.358 347.121)"/></g></svg>